<?xml version="1.0" encoding="utf-8"?>
<!-- Generator: Adobe Illustrator 25.0.0, SVG Export Plug-In . SVG Version: 6.00 Build 0)  -->
<svg version="1.1" id="Layer_1" xmlns="http://www.w3.org/2000/svg" xmlns:xlink="http://www.w3.org/1999/xlink" x="0px" y="0px"
	 viewBox="0 0 2000 2000" style="enable-background:new 0 0 2000 2000;" xml:space="preserve">
<style type="text/css">
	.st0{fill:#00176A;}
</style>
<g>
	<g>
		<path class="st0" d="M998.6,2.9L1.4,0v1892.3l615.5-706.4c-83.5-167.8-55.5-377,84.3-516.8c175-175,458.9-175,634,0
			c175.1,175.1,175.1,458.9,0,634c-139.8,139.8-349,167.8-516.7,84.3L171.7,2000h829.7c274.3,0,522.9-111.4,702.9-294.3
			c20-20,40-40,57.1-60c148.6-174.3,237.1-400,237.1-645.7C1998.6,448.6,1550,2.9,998.6,2.9z"/>
	</g>
	<circle class="st0" cx="1017.7" cy="986.6" r="352.4"/>
</g>
</svg>
